<svg xmlns="http://www.w3.org/2000/svg" width="1365.333" height="1365.333" preserveAspectRatio="xMidYMid meet" version="1.0" viewBox="0 0 1024 1024"><g fill="#000" stroke="none"><path d="M2832 6649 c-288 -37 -563 -240 -697 -514 -72 -145 -97 -253 -97 -405 1 -219 84 -425 237 -589 75 -81 187 -166 268 -204 154 -73 135 -71 547 -77 367 -5 376 -6 428 -29 69 -31 144 -113 172 -189 29 -76 29 -190 0 -275 -39 -119 -160 -249 -285 -308 -92 -43 -167 -59 -285 -59 -229 0 -413 97 -536 282 -53 79 -100 204 -110 291 -4 31 -10 57 -14 57 -7 0 -410 -238 -445 -263 -20 -14 -20 -15 4 -87 95 -295 367 -585 655 -700 156 -61 231 -74 436 -75 199 0 275 10 395 53 167 59 291 137 416 262 136 135 221 278 267 449 35 132 36 344 3 466 -68 252 -231 453 -458 569 -100 50 -150 56 -500 56 -197 0 -343 4 -375 11 -159 33 -280 159 -308 321 -9 53 -9 76 5 133 37 161 141 268 302 310 49 13 206 15 1090 15 l1033 0 0 -1322 0 -1321 182 6 c99 4 214 7 255 7 l73 0 0 1315 0 1315 395 0 395 0 2 -1317 3 -1318 250 0 250 0 3 668 2 667 109 0 108 0 189 -192 c415 -424 670 -684 891 -910 l232 -238 73 0 c40 0 124 3 186 7 l112 6 0 177 0 177 -476 482 c-262 265 -474 484 -471 487 3 3 45 13 93 23 162 34 304 114 436 248 239 243 322 583 218 893 -55 166 -119 268 -241 386 -123 117 -233 183 -386 231 l-88 28 -2440 1 c-1342 1 -2468 -2 -2503 -7z m4939 -527 c85 -34 170 -117 216 -210 35 -70 38 -83 38 -161 0 -76 -4 -94 -32 -154 -38 -79 -117 -163 -185 -194 -80 -38 -145 -43 -590 -43 l-428 0 0 388 c0 214 3 392 7 396 4 4 212 6 463 4 444 -3 456 -4 511 -26z" transform="translate(0.000000,1024.000000) scale(0.100000,-0.100000)"/></g></svg>